# xmcd
#
# Track frame offsets:
#	150
#	15135
#	27975
#	44587
#	64905
#	74770
#	92717
#	104845
#	121212
#	135290
#	155180
#	166987
#	176725
#	190675
#	209255
#	224625
#
# Disc length: 3158 seconds
#
# Revision: 6
# Processed by: cddbd v1.5.1PL2 Copyright (c) Steve Scherf et al.
# Submitted via: audiograbber 1.83.01
#
DISCID=ee0c5410
DTITLE=Various Artist - Achy Breaky Heart - The Best Of Country - Disc 2
DYEAR=1992
DGENRE=Country
TTITLE0=Jeannie C. Riley - Harper Valley P.T.A.
TTITLE1=Kenny Rogers  - Ruby, Don't Take Your Love To Town
TTITLE2=Green On Red - Two Lovers (Waitin' To Die)
TTITLE3=Steve Earle - Copperhead Road
TTITLE4=Hank Locklin - Please Help Me I'm Falling
TTITLE5=McBridge and The Ride  - Going Out Of My Mind
TTITLE6=Waylon Jennigs - Working Without A Net
TTITLE7=Steve Wariner - Small Town Girl
TTITLE8=Don Williams - Come Early Morning
TTITLE9=Lionel Cartwright - Be My Angel
TTITLE10=Frankie Laine - High Noon
TTITLE11=Ned Miller - From Jack A King
TTITLE12=Glen Campbell - The Hand That Rocks The Cradle
TTITLE13=Joe Ely - If You Were A Bluebird
TTITLE14=Don Fardon - Indian Reservation
TTITLE15=Hank Williams - Your Cheatin' Heart
EXTD=
EXTT0=
EXTT1=
EXTT2=
EXTT3=
EXTT4=
EXTT5=
EXTT6=
EXTT7=
EXTT8=
EXTT9=
EXTT10=
EXTT11=
EXTT12=
EXTT13=
EXTT14=
EXTT15=
PLAYORDER=
